<?xml version="1.0" encoding="UTF-8"?>
<svg id="Layer_3" data-name="Layer 3" xmlns="http://www.w3.org/2000/svg" xmlns:xlink="http://www.w3.org/1999/xlink" viewBox="0 0 332.96 206.06">
  <defs>
    <style>
      .cls-1 {
        fill: #231f20;
      }

      .cls-2 {
        font-family: FractulVariable-Black, 'Fractul Variable';
        font-size: 21px;
        font-variation-settings: 'wght' 900;
        font-weight: 800;
      }
    </style>
  </defs>
  <rect y="103.17" width="17.87" height="61.79" rx="4.5" ry="4.5"/>
  <path d="M191.61,164.96c.17-.23,1.25-15.4,5.62-19.93,3.75-3.89,8.24-2.61,9.69,2.6,1.1,3.95.55,7.43.82,16.61,0,.3.02.72.02.72h13.24s18.6,0,18.6,0c1.74.11,3.57.16,5.46.16,2.37,0,4.64.09,6.76.12v9.06s.02,2.2-1.64,4.08c-1.66,1.86-5.53,2.59-9,2.43-6.57-.32-7.79-2.2-8.31-3.32-.51-1.1-.52-3.58-.39-5.87.14-2.58-1.92-4.75-4.51-4.75h-7.85c-2.7,0-4.8,2.35-4.48,5.03.5,4.09,1.54,10.71,4.96,15.23,8.55,11.3,20.52,9.15,28.85,8.27,8.43-.89,16.06-8.55,16.55-21.09v-39.56c0-2.49-2.02-4.51-4.51-4.51h-5.15c-2.49,0-4.51,2.02-4.51,4.51v6.86c-2.12-.16-4.39-.2-6.76-.2-11.39,0-20.62,1.16-20.62,11.86,0,.39.01.78.04,1.14s-.25.68-.63.68h-2.79c0-.19,0-.37,0-.57.05-5.48.1-6.1-.01-11.97-.08-4.33-2.52-6.76-3.64-7.88-3.49-3.5-9.04-4.53-11.16-4.43-3.07.14-10.38.42-14.66,5.15v-2.64c0-1.39-1.12-2.51-2.51-2.51h-9.15c-1.39,0-2.51,1.12-2.51,2.51v20.9c0,.8-.65,1.44-1.44,1.44h-1.23c-.8,0-1.44-.65-1.44-1.44v-20.9c0-1.39-1.13-2.51-2.51-2.51h-9.14c-1.39,0-2.51,1.13-2.51,2.51v20.63c0,.95-.77,1.71-1.71,1.71h-1.59c-.95,0-1.71-.77-1.71-1.71v-45.7c0-2.49-2.01-4.5-4.5-4.5h-8.87c-2.49,0-4.5,2.01-4.5,4.5v33.78c-1.19-.03-2.42-.04-3.68-.04-11.58,0-20.96,1.15-20.96,11.84,0,.37.01.74.04,1.09.03.41-.28.76-.69.76h-3.89c0-.19,0-.38,0-.57.05-5.48.1-6.1-.01-11.97-.08-4.33-2.52-6.76-3.64-7.88-3.49-3.5-9.04-4.53-11.16-4.43-3.07.14-10.38.42-14.66,5.15v-2.65c0-1.38-1.12-2.5-2.5-2.5h-9.18c-1.38,0-2.5,1.12-2.5,2.5v20.77c0,.88-.71,1.59-1.59,1.59h-1.62c-.88,0-1.59-.71-1.59-1.59v-20.77c0-1.38-1.12-2.5-2.5-2.5h-28.46c-1.41,0-2.55,1.14-2.55,2.55v4.09c0,1.41,1.14,2.55,2.55,2.55h22.72v2.88c-2.79-.77-6.18-.9-9.83-.9-9.52,0-17.23,1.15-17.23,11.78s7.72,11.78,17.23,11.78c3.41,0,6.58.28,9.26,0h27.73s0,0,.05,0c.3.07,1.25-15.4,5.62-19.93,3.75-3.89,8.24-2.61,9.69,2.6,1.1,3.95.55,7.43.82,16.61,0,.3.02.72.02.72h33.85c1.59.08,3.25.12,4.96.12,4.62,0,8.89.35,12.36-.12h34.98s0,0,.02,0h9.15s0,0,.02,0h2.42M41.03,157.32c-.81.19-1.55-.09-2.04-.61-2.13,1.6-5.24,1.26-6.93-1.04-1.18-1.61-1.25-3.85-.17-5.52,1.78-2.73,5.47-3.01,7.64-.84,1.07,1.07,1.52,2.51,1.4,3.9,1.12.22,1.93,1.34,1.64,2.58-.18.75-.79,1.36-1.54,1.54ZM130.02,152.46c-.07,0-.14-.01-.21-.02.39,1.38.42,2.91-1.55,4.9-.77.78-1.78,1.35-2.88,1.43-3.24.21-5.87-2.67-5.22-5.98.38-1.92,1.93-3.47,3.85-3.86,1.61-.33,3.08.14,4.19,1.05.24-.78.96-1.35,1.82-1.35,1.06,0,1.91.86,1.91,1.91s-.86,1.91-1.91,1.91ZM244.14,157c-.81.19-1.55-.09-2.04-.61-2.13,1.6-5.24,1.26-6.93-1.04-1.18-1.61-1.25-3.85-.16-5.52,1.78-2.73,5.47-3.01,7.64-.84,1.07,1.07,1.52,2.51,1.4,3.9,1.12.22,1.93,1.34,1.64,2.58-.18.75-.79,1.36-1.54,1.53Z"/>
  <path class="cls-1" d="M176.84,106.04c-2.89-.61-5.47,1.36-5.86,4.04-.04.29-.38.43-.63.27-1.81-1.13-4.04-1.64-6.41-1.23-3.77.65-6.79,3.7-7.4,7.48-.96,5.99,3.91,11.13,9.82,10.61,4.26-.37,7.78-3.79,8.26-8.04.15-1.33.01-2.61-.35-3.79.48.16.98.27,1.52.27,3.03,0,5.41-2.77,4.75-5.91-.38-1.83-1.86-3.3-3.69-3.69ZM176.71,112.73c-.6.2-1.17.16-1.67-.04-.24-.1-.51-.05-.72.1-.65.47-1.99,1.43-2.72,1.95-.28.2-.4.56-.28.88.46,1.19.58,2.56.11,4.02-.67,2.07-2.44,3.69-4.58,4.11-4.14.8-7.75-2.62-7.25-6.75.33-2.68,2.5-4.88,5.17-5.25,1.76-.25,3.41.27,4.66,1.26.3.24.72.23,1.03.01,1.01-.73,3.04-2.19,3.04-2.19-.02-.13-.04-.27-.05-.4-.02-1.36,1.07-2.47,2.43-2.49,1.55-.02,2.78,1.4,2.43,3.02-.18.82-.81,1.5-1.61,1.77Z"/>
  <path class="cls-1" d="M73.17,125.65h33.03c.18,0,.34-.15.39-.36l1.88-7.32c.11-.44-.24-.84-.57-.64l-4.48,2.8c-.24.15-.53-.03-.58-.37l-.41-2.77c-.06-.4-.44-.57-.68-.29l-3.12,3.65c-.21.25-.55.15-.66-.19l-2.1-6.71c-.12-.37-.5-.45-.7-.14l-3.72,5.88c-.2.32-.6.23-.71-.15l-3.02-10.75c-.13-.47-.65-.46-.78,0l-2.65,10.02c-.1.39-.5.48-.71.16l-3.79-5.96c-.21-.33-.63-.22-.72.19l-1.54,7.06c-.07.33-.37.49-.61.31l-4.35-3.34c-.27-.21-.62.04-.62.45v3.98c0,.39-.31.64-.59.48l-4.97-2.98c-.32-.19-.67.19-.57.63l1.41,5.98c.05.22.21.37.39.37h5.54Z"/>
  <image width="10000" height="3172" transform="translate(67.93 83.75) rotate(-19.5) scale(.01)" xlink:href="C:\Users\khiao\Downloads\AdobeStock_574553481.png"/>
  <text class="cls-2" transform="translate(20.89 123.06)"><tspan x="0" y="0">the</tspan></text>
</svg>