<?xml version="1.0" encoding="UTF-8"?>
<svg xmlns="http://www.w3.org/2000/svg" viewBox="0 0 500 500">
  <defs>
    <style>
      .cls-1 {
        fill: #edd6d6;
      }

      .cls-2, .cls-3, .cls-4, .cls-5, .cls-6, .cls-7, .cls-8, .cls-9, .cls-10, .cls-11, .cls-12 {
        stroke: #000;
      }

      .cls-2, .cls-3, .cls-4, .cls-5, .cls-6, .cls-7, .cls-8, .cls-9, .cls-10, .cls-11, .cls-12, .cls-13, .cls-14 {
        stroke-miterlimit: 10;
      }

      .cls-2, .cls-3, .cls-5 {
        fill: none;
      }

      .cls-15 {
        fill: #936af6;
      }

      .cls-3, .cls-4, .cls-5, .cls-6, .cls-11, .cls-12, .cls-13, .cls-14 {
        stroke-linecap: round;
      }

      .cls-3, .cls-10, .cls-11 {
        stroke-width: 2px;
      }

      .cls-16, .cls-6, .cls-9, .cls-14 {
        fill: #b47095;
      }

      .cls-17 {
        fill: #0d3b66;
      }

      .cls-18, .cls-8 {
        fill: #f2f2f2;
      }

      .cls-4 {
        fill: #9b6284;
      }

      .cls-19 {
        fill: #333;
      }

      .cls-7 {
        stroke-width: .75px;
      }

      .cls-7, .cls-12 {
        fill: #eeb868;
      }

      .cls-20, .cls-10 {
        fill: #644536;
      }

      .cls-21 {
        fill: #3d315b;
      }

      .cls-11 {
        fill: #fdf4e3;
      }

      .cls-12, .cls-13, .cls-14 {
        stroke-width: 3px;
      }

      .cls-13 {
        fill: #e6e6e6;
      }

      .cls-13, .cls-14 {
        stroke: #e6e6e6;
      }
    </style>
  </defs>
  <g id="Layer_2" data-name="Layer 2">
    <circle class="cls-16" cx="116.81" cy="172.62" r="35.3"/>
    <rect id="index" class="cls-9" x="78.98" y="137.85" width="14.12" height="39.12" rx="7.06" ry="7.06" transform="translate(-82.23 95.24) rotate(-41.06)"/>
    <rect id="index-2" data-name="index" class="cls-16" x="98.23" y="89.16" width="14.12" height="70.6" rx="7.06" ry="7.06" transform="translate(-44.06 59.12) rotate(-26.14)"/>
    <path id="index-3" data-name="index" class="cls-6" d="M120.07,137.71l-20.88-41.71c-1.72-3.5-5.95-4.95-9.45-3.23h0c-3.5,1.72-4.95,5.95-3.23,9.45l18.99,38.28"/>
    <rect id="pinkie" class="cls-9" x="68.18" y="152.53" width="14.12" height="30.76" rx="7.06" ry="7.06" transform="translate(-91.78 90.73) rotate(-41.06)"/>
    <rect id="mid_finger" class="cls-16" x="77" y="93.99" width="14.12" height="80.38" rx="7.06" ry="7.06" transform="translate(-69.02 93.73) rotate(-43.13)"/>
    <path id="mid_finger-2" data-name="mid_finger" class="cls-6" d="M102.86,143.53l-36.3-38.35c-2.67-2.85-7.13-2.99-9.98-.32h0c-2.85,2.67-2.99,7.13-.32,9.98l36.3,38.35"/>
    <path id="thumb" class="cls-16" d="M144.91,175.81c-5.58,5.28-14.19,6.41-21.05,2.19-8.17-5.03-10.72-15.73-5.69-23.91,5.03-8.17,15.73-10.72,23.91-5.69.95.58,1.82,1.25,2.61,1.98l13.12-21.32c3.22-5.23,10.07-6.87,15.31-3.65,1.41.87,1.85,2.71.98,4.12l-27.18,44.17c-.53.86-1.22,1.57-2.01,2.11Z"/>
    <path id="thumb-2" data-name="thumb" class="cls-6" d="M123.87,178.01c-8.17-5.03-10.72-15.73-5.69-23.91,5.03-8.17,15.73-10.72,23.91-5.69.95.58,1.82,1.25,2.61,1.98l13.12-21.32c3.22-5.23,10.07-6.87,15.31-3.65,1.41.87,1.85,2.71.98,4.12"/>
    <path id="thumb-3" data-name="thumb" class="cls-5" d="M144.69,150.38l13.12-21.32"/>
    <path id="pinkie-2" data-name="pinkie" class="cls-5" d="M96.43,158.5l-10.97-12.59"/>
    <path id="pinkie-3" data-name="pinkie" class="cls-5" d="M86.32,169.73l-12.24-13.91"/>
    <path class="cls-1" d="M169.48,125h0c1.67,0,3.02,1.35,3.02,3.02v5.46c0,1.67-1.35,3.02-3.02,3.02h-2.96c-1.67,0-3.02-1.35-3.02-3.02v-2.5c0-3.3,2.68-5.98,5.98-5.98Z" transform="translate(87.88 -66.48) rotate(30)"/>
  </g>
  <g id="Layer_1" data-name="Layer 1">
    <rect class="cls-19" x="238.5" y="157.92" width="118.12" height="148.09" rx="59.06" ry="59.06"/>
    <rect class="cls-16" x="282.57" y="195.83" width="34.38" height="89.03" rx="17.19" ry="17.19"/>
    <path class="cls-21" d="M316.95,231.09l-34.38,5.29v-23.36c0-9.49,7.7-17.19,17.19-17.19h0c9.49,0,17.19,7.7,17.19,17.19v18.07Z"/>
    <path class="cls-19" d="M167.83,158.76l.09-2.31c.1-2.61,1.16-5.19,2.99-6.94,1.63-1.56,3.67-2.75,5.63-4.13,6.11-4.3,13.32-6.72,20.56-10.73,8.98-4.96,16.26-13.98,20.34-24.77l17.77-44.29c2.63-7.67,7.1-12.83,10.28-11.85h0c3.21.98,4.01,7.88,1.83,15.78l-22.69,61.29c-7.85,15.69-13.98,20.67-27.78,27.3-6.91,3.32-19.1,7.78-23.3,6.98-1.8-.34-2.36-.2-3.82-1.87-.73-.83-1.95-3.58-1.91-4.45Z"/>
    <path class="cls-19" d="M421.33,158.76l-.09-2.31c-.1-2.61-1.16-5.19-2.99-6.94-1.63-1.56-3.67-2.75-5.63-4.13-6.11-4.3-13.32-6.72-20.56-10.73-8.98-4.96-16.26-13.98-20.34-24.77l-17.77-44.29c-2.63-7.67-7.1-12.83-10.28-11.85h0c-3.21.98-4.01,7.88-1.83,15.78l22.69,61.29c7.85,15.69,13.98,20.67,27.78,27.3,6.91,3.32,19.1,7.78,23.3,6.98,1.8-.34,2.36-.2,3.82-1.87.73-.83,1.95-3.58,1.91-4.45Z"/>
    <path class="cls-16" d="M230.19,175.13c-5.46,5.1-13.31,8.09-21.46,8.34-14.3.43-26.52-10.54-26.64-24.85-.1-10.75,5.92-20.1,14.77-24.8,6.46-3.43,14.25-2.84,20.22,1.38,6.16,4.34,11.07,9.01,14.62,13.37,6.44,7.91,5.94,19.61-1.51,26.57Z"/>
    <path class="cls-3" d="M200.59,144.7s0,24.68,24.68,22.04"/>
    <path class="cls-5" d="M210.09,163.86s-5.53,11.26,1.52,11.26"/>
    <path class="cls-16" d="M359.09,173.37c5.46,5.1,13.31,8.09,21.46,8.34,14.3.43,26.52-10.54,26.64-24.85.1-10.75-5.92-20.1-14.77-24.8-6.46-3.43-14.25-2.84-20.22,1.38s-11.07,9.01-14.62,13.37c-6.44,7.91-5.94,19.61,1.51,26.57Z"/>
    <path class="cls-3" d="M388.68,144.7s0,24.68-24.68,22.04"/>
    <path class="cls-5" d="M379.18,163.86s5.53,11.26-1.52,11.26"/>
    <rect class="cls-16" x="233.21" y="60.07" width="122.53" height="163.96" rx="52.13" ry="52.13"/>
    <circle class="cls-18" cx="322.68" cy="148.67" r="22.48"/>
    <circle class="cls-18" cx="267.19" cy="148.36" r="22.48"/>
    <path class="cls-7" d="M410.05,142.11l-4.68-1.69,2.68-4.54c.08-.13-.06-.28-.2-.22l-3.79,1.64.12-3.83c0-.24-.3-.36-.45-.16l-3.06,3.93-3.49-3.96c-.1-.11-.28-.03-.27.12l.39,4.11-3.6-1.3c-.23-.08-.43.18-.29.38l2.79,4.12-4.84,2.1c-.14.06-.12.26.03.29l4.03.9-2.35,3.03c-.15.19.03.47.27.4l4.78-1.38.5,5.25c.01.15.21.19.29.06l2.1-3.56,2.15,3.17c.14.2.45.11.46-.13l.16-4.98,5.15,1.15c.15.03.25-.14.15-.25l-2.73-3.1,3.68-1.07c.23-.07.25-.4.02-.48Z"/>
    <rect class="cls-21" x="273.32" y="138.53" width="11.46" height="21.16" rx="5.73" ry="5.73"/>
    <rect class="cls-15" x="274.64" y="140.29" width="8.82" height="17.63" rx="4.41" ry="4.41"/>
    <rect class="cls-21" x="305.05" y="138.53" width="11.46" height="21.16" rx="5.73" ry="5.73"/>
    <rect class="cls-15" x="306.38" y="140.29" width="8.82" height="17.63" rx="4.41" ry="4.41"/>
    <path class="cls-16" d="M291.39,149.55c0-13.39-10.85-24.24-24.24-24.24s-24.24,10.85-24.24,24.24h48.48Z"/>
    <path class="cls-16" d="M346.93,149.99c0-13.39-10.85-24.24-24.24-24.24s-24.24,10.85-24.24,24.24h48.48Z"/>
    <path class="cls-16" d="M309.46,174.89c0,4.5-6.71,8.15-14.99,8.15s-14.99-3.65-14.99-8.15c0-3.19,2.43-5.07,7.45-6.52,4.51-1.3,9.3-1.24,13.82.03,5.86,1.65,8.7,3.05,8.7,6.49Z"/>
    <path class="cls-6" d="M286.98,182.22c-2.95,1.7-6.73.69-8.43-2.26s-.69-6.73,2.26-8.43"/>
    <path class="cls-6" d="M301.53,182.22c2.95,1.7,6.73.69,8.43-2.26s.69-6.73-2.26-8.43"/>
    <g id="piercing">
      <path class="cls-14" d="M286.54,188.34c-3.53-4.41-.73-8.82,7.93-8.82,8.09,0,11.46,4.41,7.05,8.82"/>
      <circle class="cls-13" cx="287.42" cy="189.22" r=".88"/>
      <circle class="cls-13" cx="300.65" cy="189.22" r=".88"/>
    </g>
    <path class="cls-6" d="M303.73,177.32c0,3.89-4.34,7.05-9.7,7.05s-9.7-3.16-9.7-7.05"/>
    <path d="M284.88,138.92l-10.43-1.36c-4.56-.59-9.17-.62-13.73-.07l-11.87,1.42c-1.76.21-3.3-1.16-3.3-2.93v-4.36c0-4.03,3.27-7.3,7.3-7.3h27.71c4.03,0,7.3,3.27,7.3,7.3v4.67c0,1.6-1.4,2.83-2.99,2.62Z"/>
    <path d="M341.3,138.92l-10.43-1.36c-4.56-.59-9.17-.62-13.73-.07l-11.87,1.42c-1.76.21-3.3-1.16-3.3-2.93v-4.36c0-4.03,3.27-7.3,7.3-7.3h27.71c4.03,0,7.3,3.27,7.3,7.3v4.67c0,1.6-1.4,2.83-2.99,2.62Z"/>
    <path class="cls-19" d="M240.74,122.64h0c-3.34-3-2.7-9.01,1.39-13.02l35.01-34.35c2.29-2.25,5.5-2.68,7.37-1h0c1.89,1.7,1.78,4.98-.26,7.5l-30.8,38.19c-3.57,4.42-9.4,5.65-12.71,2.67Z"/>
    <path class="cls-19" d="M244.07,138.24h0c-3.74-3.36-3.42-9.65.71-13.63l35.28-34.1c2.31-2.23,5.7-2.5,7.8-.62h0c2.12,1.9,2.19,5.35.17,7.89l-30.57,38.4c-3.54,4.44-9.69,5.39-13.39,2.06Z"/>
    <path class="cls-19" d="M271.21,142.16h0c-3.41.97-6.97-1.03-7.66-4.51-1.08-5.37,1.52-12.67,4.05-15.87l24.37-29.44c2-2.53,4.9-3.55,8.24-1.41l1.21.72c3.38,2.16,3.84,3.46,2.32,6.33l-5.28,13.2s-.01.03-.02.05c-2.04,3.95-4.76,10.38-7.04,14.08-4.74,7.7-11.49,14.37-20.18,16.85Z"/>
    <path class="cls-19" d="M169.25,207.74l-.84-2.24c-.34-4.78,1.35-9.49,4.69-12.93,5.72-5.9,13.42-10.33,20.6-16.28,8.89-7.37,14.29-18.13,15.21-29.64l5.02-47.56c.33-8.1,3.79-14.35,7.93-14.35h0c4.19,0,7.66,6.36,7.94,14.55l-4.67,65.25c-.89,17.87-11.24,34.1-27.37,41.87-7.97,3.84-15.7,5.4-21.01,5.87-2.27.2-3.93-.22-5.36-1.42-.99-.82-1.69-1.94-2.14-3.14Z"/>
    <path class="cls-19" d="M421.08,208.62l.84-2.24c.34-4.78-1.35-9.49-4.69-12.93-5.72-5.9-13.42-10.33-20.6-16.28-8.89-7.37-14.29-18.13-15.21-29.64l-5.02-47.56c-.33-8.1-3.79-14.35-7.93-14.35h0c-4.19,0-7.66,6.36-7.94,14.55l4.67,65.25c.89,17.87,11.24,34.1,27.37,41.87,7.97,3.84,15.7,5.4,21.01,5.87,2.27.2,3.93-.22,5.36-1.42.99-.82,1.69-1.94,2.14-3.14Z"/>
    <path class="cls-19" d="M362.35,244.43h0c-7.4,0-13.22-12.38-12.62-26.84l5.12-123.77c.33-8.1,3.79-14.35,7.93-14.35h0c4.19,0,7.66,6.36,7.94,14.55l4.27,123.9c.49,14.34-5.3,26.51-12.63,26.51Z"/>
    <path class="cls-19" d="M229.48,246.19h0c-7.4,0-13.22-12.38-12.62-26.84l5.12-123.77c.33-8.1,3.79-14.35,7.93-14.35h0c4.19,0,7.66,6.36,7.94,14.55l4.27,123.9c.49,14.34-5.3,26.51-12.63,26.51Z"/>
    <path class="cls-19" d="M325.95,122.34h0c-2.58,2.11-6.04,1.52-7.5-1.46-2.25-4.59-1.95-12.29-.66-16.15l12.76-35.95c1.02-3.05,3.17-5.03,6.48-4.23l1.18.24c3.35.8,4.06,1.84,3.53,5.05l-1.04,14.11s0,.03,0,.05c-.69,4.39-1.32,11.32-2.27,15.56-1.98,8.82-5.89,17.4-12.47,22.79Z"/>
    <path class="cls-20" d="M315.2,310.97c-.89-1.99-1.61-4.08-2.14-6.23l-.21-.62.06-.03c-.61-2.68-.94-5.47-.94-8.34,0-20.69,16.77-37.46,37.46-37.46,11.89,0,22.49,5.55,29.35,14.19l.18-.09,59.89,93.74c7.19,8.81,11.51,20.06,11.51,32.31,0,28.24-22.89,51.13-51.13,51.13-20.72,0-38.55-12.33-46.58-30.06l-.14.08-.71-2.07c-.65-1.61-1.22-3.27-1.7-4.96l-34.9-101.59Z"/>
    <path class="cls-20" d="M255.21,333.8c2.08-.66,4.12-1.5,6.09-2.53l.6-.25-.02-.07c2.41-1.32,4.72-2.93,6.87-4.83,15.48-13.73,16.91-37.41,3.18-52.89-7.89-8.9-19.07-13.14-30.09-12.54l-.06-.19-109.88,17.38c-11.36.46-22.64,4.69-31.82,12.82-21.13,18.73-23.07,51.05-4.34,72.18,13.75,15.5,34.8,20.66,53.39,14.92l.03.16,2.02-.84c1.64-.58,3.25-1.26,4.84-2.02l99.17-41.29Z"/>
    <circle class="cls-20" cx="399.82" cy="399.46" r="51.13"/>
    <rect class="cls-11" x="425.26" y="476.99" width="58.58" height="67" rx="25.95" ry="25.95" transform="translate(1103.45 725.31) rotate(150)"/>
    <path class="cls-20" d="M352.65,406.7c0-28.24,22.89-51.13,51.13-51.13,20.5,0,38.17,12.07,46.32,29.48l31.66,50.49c18.34,28.6,8.74,66.75-20.96,83.26h0c-32.15,17.87-72.64,2.21-84.4-32.64l-19.33-58.3.14-.08c-2.91-6.43-4.55-13.56-4.55-21.07Z"/>
    <path class="cls-11" d="M478.57,431.78c-12.38,7.6-29.96,1.49-39.25-13.65-9.3-15.14-6.8-33.58,5.58-41.18"/>
    <rect class="cls-11" x="92.21" y="176.95" width="58.58" height="67" rx="25.95" ry="25.95" transform="translate(-11.83 7.29) rotate(-3.28)"/>
    <path class="cls-20" d="M88.73,352.54c14.06,24.49,45.31,32.94,69.8,18.87,17.77-10.21,27.09-29.47,25.48-48.63l2.3-59.55c1.66-33.94-25.67-62.24-59.64-61.76h0c-36.78.52-64.09,34.26-56.93,70.34l12.27,60.18h.16c.68,7.03,2.81,14.02,6.55,20.54Z"/>
    <path class="cls-11" d="M185.43,268.08c-14.52-.43-26.72,13.62-27.24,31.38-.52,17.76,10.83,32.5,25.35,32.93"/>
    <circle class="cls-20" cx="253.04" cy="296.76" r="37.46"/>
    <circle class="cls-20" cx="349.13" cy="295" r="37.46"/>
    <circle class="cls-17" cx="299.32" cy="440.01" r="58.18"/>
    <path class="cls-17" d="M290.51,600.44l-.04-1.24c0-.23-.01-.46-.02-.69l-5.22-152.34h-.03c-.69-16.67-14.42-29.97-31.26-29.97s-30.57,13.3-31.26,29.97h-.03l-18.15,144.36c-.77,3.15-1.19,6.43-1.23,9.8v.11s0,0,0,0c0,.15-.01.29-.01.44,0,24.1,19.54,43.64,43.64,43.64s43.64-19.54,43.64-43.64c0-.15,0-.29-.01-.44h.01Z"/>
    <path class="cls-17" d="M308.54,599.56l.04-1.24c0-.23.01-.46.02-.69l5.22-152.34h.03c.69-16.67,14.42-29.97,31.26-29.97s30.57,13.3,31.26,29.97h.03l18.15,144.36c.77,3.15,1.19,6.43,1.23,9.8v.11s0,0,0,0c0,.15.01.29.01.44,0,24.1-19.54,43.64-43.64,43.64-24.1,0-43.64-19.54-43.64-43.64,0-.15,0-.29.01-.44h-.01Z"/>
    <path class="cls-10" d="M396.69,377.4l-35.23-87.71c-4.33-10.79-11.27-19.97-19.91-26.97.61-1.09.96-2.36.96-3.71v-10.87c0-4.06-3.13-7.35-6.99-7.35h-71.89c-4.05,0-7.25,3.61-6.97,7.85l.71,10.87c.07,1.12.39,2.17.88,3.09-8.4,6.77-15.21,15.6-19.6,25.98l-37.06,87.71c-18.6,44.01-20.41,92.81,27.19,92.81h144.57c47.09,0,40.93-47.84,23.32-91.7Z"/>
    <path class="cls-4" d="M277.73,203.32c1.76-1.76,2.64-9.7,16.75-9.7,16.77,0,15.08,9.1,16.75,9.7"/>
    <path class="cls-8" d="M276.4,203.72c1.76-1.07,10.58-3.52,18.07-3.49,7.49.03,18.16,3.12,19.83,3.49s-13.22,2.64-19.39,2.68-19.39-2.15-18.51-2.68Z"/>
    <line class="cls-2" x1="301.97" y1="201.12" x2="302.08" y2="205.52"/>
    <path class="cls-5" d="M271.41,201.56s2.79,2.64,5.43,1.76"/>
    <path class="cls-5" d="M319.16,201.56s-3.53,2.64-6.17,1.76"/>
    <path class="cls-4" d="M287.86,210.58s6.83,3.73,12.45,0"/>
    <path class="cls-12" d="M332.3,91.57l-78.62.45c-18.54.11-37.42,13.04-32.35-15.64l1.84-27.08c1.81-13.15,9.9-18.32,20.32-23.38,4.36-2.12,8.88-3.93,13.51-5.42l15.34-4.94c6.96-2.24,14.11-3.91,21.39-4.73,6.67-.76,13.41-1,20.13-.72l12.35.52c5.31.22,10.58,1.13,15.55,2.92,13.05,4.7,19.49,12.94,20.8,25.58l4.49,39.9c1.9,18.43-15.62,12.44-34.75,12.55Z"/>
    <path class="cls-12" d="M372.96,103.36l-31.28-1.45c-31.54-1.46-63.17-.24-94.46,3.66l-30.94,3.85c-8.94,1.11-16.63-5.71-15.6-13.83l1.88-14.72c.76-5.95,6.07-10.58,12.67-11.03l39.27-5.8c25.98-3.83,52.27-5.61,78.59-5.3l36.88.44c7.34-.51,13.83,4.3,14.75,10.92l2.65,19.22c1.07,7.72-5.83,14.44-14.41,14.04Z"/>
  </g>
</svg>