<?xml version="1.0" encoding="UTF-8"?>
<svg id="Layer_1" data-name="Layer 1" xmlns="http://www.w3.org/2000/svg" viewBox="0 0 299 80.2">
  <defs>
    <style>
      .cls-1, .cls-2, .cls-3, .cls-4, .cls-5, .cls-6, .cls-7 {
        stroke-miterlimit: 10;
        stroke-width: 2px;
      }

      .cls-1, .cls-2, .cls-6 {
        stroke: #000;
      }

      .cls-1, .cls-3, .cls-4, .cls-5, .cls-6, .cls-7 {
        stroke-linecap: round;
      }

      .cls-1, .cls-3, .cls-5 {
        fill: none;
      }

      .cls-2 {
        fill: #333;
      }

      .cls-3 {
        stroke: #ccc;
      }

      .cls-4 {
        fill: #fbb03b;
        stroke: #e59c45;
      }

      .cls-5 {
        stroke: #fff;
      }

      .cls-6 {
        fill: #a67c52;
      }

      .cls-7 {
        fill: #999;
        stroke: #666;
      }

      .cls-8 {
        fill: #e6e6e6;
      }
    </style>
  </defs>
  <path class="cls-7" d="M58.43,33.34c.63-.63,42.7,0,42.7,0l-10.75,21.19h-15.5l-16.45-21.19Z"/>
  <path class="cls-7" d="M244.71,33.97c-.63-.63-42.7,0-42.7,0l10.75,21.19h15.5s16.45-21.19,16.45-21.19Z"/>
  <path class="cls-2" d="M47.19,5.51l201.42-.61c3.57-.01,7.14-.39,10.63-1.14,7.85-1.69,23.81-4.39,34.91-1.44,3.35.89,4.92,4.81,3.04,7.72-5.75,8.86-29.04,17.68-41.73,17.93-15.81.32-200.2,3.8-206.52,3.16S.28,22.9,1.05,10.09C1.81-2.71,35.97,4.56,47.19,5.51Z"/>
  <path class="cls-6" d="M255.46,26.65l-206.52,2.91c-10.43-.87-43.01-6.12-47.76-18.36-2.85,7.87,28.32,26.18,48.07,29.15,15.5,2.33,186.44-.58,201.15-.87,11.8-.23,35.77-15.44,41.11-23.61,1.75-2.68-.13,1.29-3.16,2.33l-18.72,6.04c-4.37,1.02-9.66,2.35-14.17,2.42Z"/>
  <ellipse class="cls-8" cx="60.64" cy="11.68" rx="2.21" ry=".79"/>
  <ellipse class="cls-8" cx="60.64" cy="16.1" rx="2.21" ry=".79"/>
  <ellipse class="cls-8" cx="70.13" cy="11.68" rx="2.21" ry=".79"/>
  <ellipse class="cls-8" cx="70.13" cy="16.1" rx="2.21" ry=".79"/>
  <ellipse class="cls-8" cx="233.01" cy="11.68" rx="2.21" ry=".79"/>
  <ellipse class="cls-8" cx="233.01" cy="16.1" rx="2.21" ry=".79"/>
  <ellipse class="cls-8" cx="242.49" cy="11.68" rx="2.21" ry=".79"/>
  <ellipse class="cls-8" cx="242.49" cy="16.1" rx="2.21" ry=".79"/>
  <circle class="cls-4" cx="80.25" cy="61.8" r="17.39"/>
  <circle class="cls-1" cx="80.25" cy="61.8" r="5.38"/>
  <circle class="cls-5" cx="80.25" cy="61.8" r="5.38"/>
  <circle class="cls-3" cx="80.25" cy="61.8" r="1.42"/>
  <path class="cls-1" d="M78.03,49.15s-10.21.95-10.01,14.07"/>
  <circle class="cls-4" cx="223.52" cy="61.8" r="17.39"/>
  <circle class="cls-1" cx="223.52" cy="61.8" r="5.38"/>
  <circle class="cls-5" cx="223.52" cy="61.8" r="5.38"/>
  <circle class="cls-3" cx="223.52" cy="61.8" r="1.42"/>
  <path class="cls-1" d="M236.5,58.87s2.83,12.1-8.77,14.88"/>
</svg>